<svg width="86" height="74" viewBox="0 0 86 74" fill="none" xmlns="http://www.w3.org/2000/svg">
<mask id="path-1-outside-1_163_30197" maskUnits="userSpaceOnUse" x="0" y="0.580078" width="86" height="73" fill="black">
<rect fill="white" y="0.580078" width="86" height="73"/>
<path d="M65.2801 39.9337C62.3094 39.9337 59.4951 40.2077 56.9935 40.6969V10.1314C56.9935 5.33717 48.3355 1.58008 37.2932 1.58008C26.2508 1.58008 17.5733 5.33717 17.5733 10.1314V46.4891C8.05537 47.1152 1 50.618 1 54.9425V62.6132C1 67.4074 9.65798 71.1841 20.7199 71.1841C30.1792 71.1841 37.8795 68.425 39.9121 64.6288C41.9251 64.5114 43.8404 64.2765 45.5993 63.9439C45.7557 68.6794 54.3355 72.3778 65.2997 72.3778C76.2638 72.3778 85 68.6207 85 63.8069V48.485C85 43.6908 76.342 39.9142 65.2997 39.9142L65.2801 39.9337ZM40.4202 54.9621C40.4202 52.8096 38.6612 50.8528 35.7296 49.3656C35.8078 49.3656 35.886 49.3656 35.9642 49.3656C36.4137 49.3656 36.8436 49.3852 37.2932 49.3852C40.2638 49.3852 43.0782 49.1112 45.5798 48.622V54.4337C43.9381 54.7664 42.1791 55.0208 40.4202 55.1578V54.9621ZM47.3583 52.1051C50.4463 55.0599 57.228 57.0559 65.2801 57.0559C73.3322 57.0559 80.114 55.0599 83.202 52.1051V56.1557C83.202 60.1477 73.7622 62.9263 65.2801 62.9263C56.798 62.9263 47.3583 60.1477 47.3583 56.1557V52.1051ZM65.2801 41.7144C76.0098 41.7144 83.202 45.2171 83.202 48.485C83.202 52.4769 73.7622 55.2556 65.2801 55.2556C56.798 55.2556 47.3583 52.4769 47.3583 48.485C47.3583 45.2171 54.5505 41.7144 65.2801 41.7144ZM37.2932 3.36078C45.7752 3.36078 55.215 6.13946 55.215 10.1314C55.215 13.3993 48.0033 16.902 37.2932 16.902C26.5831 16.902 19.3713 13.3993 19.3713 10.1314C19.3713 6.13946 28.8306 3.36078 37.2932 3.36078ZM19.3713 13.7515C21.228 15.5322 24.4137 16.9411 28.4202 17.8021C31.0782 18.3696 34.0879 18.7022 37.2932 18.7022C40.4984 18.7022 43.5081 18.3696 46.1661 17.8021C50.1726 16.9411 53.3583 15.5126 55.215 13.7515V17.8021C55.215 21.07 48.0033 24.5727 37.2932 24.5727C26.5831 24.5727 19.3713 21.07 19.3713 17.8021V13.7515ZM19.3713 21.4222C19.7622 21.794 20.1922 22.1462 20.6808 22.4789C20.6808 22.4789 20.6808 22.4789 20.7003 22.4789C21.1889 22.8116 21.7166 23.1246 22.3029 23.4182C22.3029 23.4182 22.342 23.4182 22.3616 23.4377C22.9479 23.7313 23.5537 24.0052 24.2182 24.2596C24.2573 24.2596 24.2769 24.2792 24.316 24.2987C24.9805 24.5531 25.6645 24.7684 26.4072 24.9836C26.4463 24.9836 26.5049 25.0032 26.544 25.0228C26.8762 25.1206 27.2085 25.1989 27.5603 25.2772C27.5993 25.2772 27.6384 25.2967 27.6775 25.2967C28.0489 25.3946 28.4397 25.4728 28.8306 25.5511C28.8892 25.5511 28.9479 25.5707 29.0065 25.5902C29.3388 25.6489 29.6906 25.7272 30.0228 25.7664C30.101 25.7664 30.1792 25.7859 30.2573 25.8055C30.6482 25.8642 31.0586 25.9229 31.4691 25.9816C31.5277 25.9816 31.5863 25.9816 31.645 26.0012C31.9967 26.0403 32.3485 26.0794 32.7199 26.1186C32.8176 26.1186 32.9153 26.1381 33.013 26.1381C33.4235 26.1773 33.8534 26.2164 34.2834 26.236C34.3225 26.236 34.3811 26.236 34.4202 26.236C34.8111 26.2556 35.202 26.2751 35.5928 26.2947C35.7101 26.2947 35.8274 26.2947 35.9446 26.2947C36.3941 26.2947 36.8241 26.3143 37.2736 26.3143C37.7231 26.3143 38.1726 26.3143 38.6026 26.2947C38.7199 26.2947 38.8371 26.2947 38.9544 26.2947C39.3453 26.2947 39.7362 26.2556 40.127 26.236C40.1661 26.236 40.2248 26.236 40.2638 26.236C40.6938 26.2164 41.1238 26.1773 41.5342 26.1381C41.6319 26.1381 41.7296 26.1382 41.8274 26.1186C42.1987 26.0794 42.5505 26.0403 42.9023 26.0012C42.9609 26.0012 43.0195 26.0012 43.0977 25.9816C43.5081 25.9229 43.9186 25.8642 44.3094 25.8055C44.3876 25.8055 44.4658 25.7859 44.5244 25.7664C44.8762 25.7077 45.228 25.6489 45.5603 25.5707C45.6189 25.5707 45.6775 25.5511 45.7362 25.5315C46.127 25.4533 46.5179 25.375 46.8893 25.2772C46.9283 25.2772 46.9674 25.2771 47.0065 25.2576C47.3583 25.1793 47.6906 25.0815 48.0228 24.9836C48.0619 24.9836 48.1205 24.9641 48.1596 24.9445C48.9023 24.7292 49.5863 24.514 50.2508 24.2596C50.2899 24.2596 50.3094 24.24 50.3485 24.2205C51.013 23.9661 51.6384 23.6921 52.2248 23.3986C52.2248 23.3986 52.2638 23.3986 52.2834 23.379C52.8697 23.0855 53.3974 22.7724 53.886 22.4398C53.886 22.4398 53.886 22.4398 53.9055 22.4398C54.3941 22.1071 54.8436 21.7549 55.215 21.3831V25.4337C55.215 29.4256 45.7752 32.2043 37.2932 32.2043C26.5635 32.2043 19.3713 28.7016 19.3713 25.4337V21.3831V21.4222ZM19.3713 29.0929C19.7622 29.4647 20.1922 29.817 20.6808 30.1496C21.1694 30.4823 21.7166 30.7954 22.3029 31.0889C22.3029 31.0889 22.342 31.0889 22.342 31.1085C22.9283 31.402 23.5537 31.6759 24.2182 31.9303C24.2378 31.9303 24.2769 31.9499 24.316 31.9695C24.9805 32.2239 25.684 32.4391 26.4072 32.6544C26.4463 32.6544 26.5049 32.6739 26.544 32.6935C26.8762 32.7913 27.2085 32.8696 27.5603 32.9479C27.5993 32.9479 27.6384 32.9674 27.6775 32.9674C28.0489 33.0653 28.4397 33.1436 28.8306 33.2218C28.8892 33.2218 28.9479 33.2414 29.0065 33.261C29.3388 33.3197 29.6906 33.3979 30.0423 33.4567C30.1205 33.4567 30.1987 33.4762 30.2573 33.4958C30.6482 33.5545 31.0586 33.6132 31.4691 33.6719C31.5277 33.6719 31.5863 33.6719 31.645 33.6915C31.9967 33.7306 32.3485 33.7697 32.7199 33.8089C32.8176 33.8089 32.9153 33.8284 33.013 33.8284C33.4235 33.8676 33.8534 33.9067 34.2834 33.9263C34.3225 33.9263 34.3811 33.9263 34.4397 33.9263C34.8306 33.9459 35.2215 33.9654 35.6124 33.985C35.7296 33.985 35.8469 33.985 35.9642 33.985C36.4137 33.985 36.8436 34.0046 37.2932 34.0046C37.7427 34.0046 38.1922 34.0046 38.6222 33.985C38.7394 33.985 38.8567 33.985 38.9739 33.985C39.3648 33.985 39.7557 33.9459 40.1466 33.9263C40.1857 33.9263 40.2443 33.9263 40.2834 33.9263C40.7134 33.9067 41.1433 33.8676 41.5537 33.8284C41.6515 33.8284 41.7492 33.8284 41.8469 33.8089C42.1987 33.7697 42.57 33.7306 42.9218 33.6915C42.9805 33.6915 43.0391 33.6915 43.1173 33.6719C43.5277 33.6132 43.9186 33.5545 44.329 33.4958C44.4072 33.4958 44.4853 33.4762 44.5635 33.4567C44.9153 33.3979 45.2476 33.3392 45.5798 33.2805C45.6384 33.2805 45.6971 33.261 45.7557 33.2414C46.1466 33.1631 46.5179 33.0849 46.8893 32.987C46.9283 32.987 46.9674 32.9674 47.0261 32.9479C47.3583 32.8696 47.6906 32.7718 48.0228 32.6935C48.0814 32.6935 48.1205 32.6739 48.1792 32.6544C48.9023 32.4391 49.6059 32.2239 50.2508 31.9695C50.2899 31.9695 50.329 31.9499 50.3681 31.9303C51.0326 31.6759 51.6384 31.402 52.2248 31.128C52.2443 31.128 52.2638 31.1085 52.2834 31.0889C52.8697 30.7954 53.3974 30.4823 53.886 30.1496C53.886 30.1496 53.886 30.1496 53.9055 30.1301C54.3941 29.7974 54.8241 29.4452 55.215 29.0929V33.1436C55.215 34.8851 53.0261 36.7245 49.3518 38.0552C46.3811 39.0727 42.6287 39.738 38.9349 39.8946C38.3876 39.9141 37.8404 39.9337 37.2932 39.9337C36.4919 39.9337 35.6906 39.9141 34.8893 39.8554C33.9121 39.7967 32.9544 39.6989 31.9967 39.5815C25.3127 38.7205 19.3713 36.3136 19.3713 33.1436V29.0929ZM19.3713 36.7637C19.7427 37.1355 20.1922 37.4877 20.6808 37.8204C20.6808 37.8204 20.7003 37.8204 20.7003 37.8399C21.1889 38.1726 21.7166 38.4857 22.3029 38.7792C22.3225 38.7792 22.342 38.7988 22.3616 38.8183C22.9283 39.1119 23.5537 39.3858 24.2182 39.6206C24.2573 39.6206 24.2964 39.6402 24.3355 39.6598C24.6677 39.7772 25 39.8946 25.3322 40.012C25.684 40.1294 26.0358 40.2272 26.4072 40.3446C26.4658 40.3446 26.5049 40.3642 26.5635 40.3838C26.8958 40.4816 27.228 40.5599 27.5603 40.6382C27.5993 40.6382 27.6384 40.6577 27.6971 40.6773C28.0684 40.7752 28.4593 40.8534 28.8306 40.9317C28.8892 40.9317 28.9479 40.9513 29.0261 40.9708C29.3583 41.0295 29.6906 41.0882 30.0423 41.1469C30.1205 41.1469 30.1987 41.1665 30.2769 41.1861C30.6678 41.2448 31.0782 41.3035 31.4886 41.3622C31.5472 41.3622 31.6254 41.3622 31.684 41.3818C32.0358 41.4209 32.3876 41.46 32.759 41.4992C32.8567 41.4992 32.9544 41.5187 33.0521 41.5187C33.4625 41.5579 33.8925 41.597 34.3225 41.6166C34.3616 41.6166 34.4202 41.6166 34.4593 41.6166C34.8502 41.6362 35.241 41.6557 35.6319 41.6753C35.7492 41.6753 35.8664 41.6753 35.9837 41.6753C36.4332 41.6753 36.8632 41.6949 37.3127 41.6949C37.7622 41.6949 38.2117 41.6949 38.6417 41.6753C38.759 41.6753 38.8762 41.6753 38.9935 41.6753C39.3844 41.6753 39.7752 41.6362 40.1661 41.6166C40.2052 41.6166 40.2638 41.6166 40.3029 41.6166C40.7329 41.597 41.1629 41.5579 41.5733 41.5187C41.671 41.5187 41.7687 41.5187 41.8665 41.4992C42.2378 41.46 42.5896 41.4209 42.9414 41.3818C43 41.3818 43.0586 41.3818 43.1173 41.3622C43.5277 41.3035 43.9381 41.2448 44.329 41.1861C44.4072 41.1861 44.4853 41.1665 44.5635 41.1469C44.9153 41.0882 45.2476 41.0295 45.5798 40.9708C45.6384 40.9708 45.6971 40.9513 45.7557 40.9317C46.1466 40.8534 46.5375 40.7752 46.9088 40.6773C46.9479 40.6773 46.987 40.6577 47.0261 40.6577C47.3778 40.5795 47.7101 40.4816 48.0423 40.4034C48.101 40.4034 48.1401 40.3838 48.1987 40.3642C48.9218 40.149 49.6254 39.9337 50.2704 39.6793C50.3094 39.6793 50.3485 39.6598 50.3681 39.6402C51.0326 39.3858 51.658 39.1119 52.2248 38.8379C52.2443 38.8379 52.2638 38.8183 52.2834 38.7988C52.8697 38.5052 53.3974 38.1922 53.886 37.8595C53.886 37.8595 53.886 37.8595 53.9055 37.8595C54.3941 37.5268 54.8241 37.1746 55.215 36.8224V40.873C55.215 40.873 55.1954 41.0687 55.1759 41.1665C50.5049 42.3602 47.1238 44.3561 45.9902 46.763C43.4691 47.3305 40.5375 47.6632 37.2932 47.6632C28.8111 47.6632 19.3713 44.8845 19.3713 40.8926V36.8419V36.7637ZM19.3713 44.4344C19.7622 44.8062 20.1922 45.1584 20.7003 45.4911C21.1889 45.8237 21.7166 46.1173 22.2834 46.4108C21.7752 46.4108 21.2476 46.3912 20.7199 46.3912C20.2704 46.3912 19.8208 46.3912 19.3713 46.4108V44.4344ZM20.7199 48.1719C31.2932 48.1719 38.6417 51.7529 38.6417 54.9425C38.6417 58.1321 31.43 61.7327 20.7199 61.7327C10.0098 61.7327 2.79805 58.23 2.79805 54.9425C2.79805 50.9506 12.2378 48.1719 20.7199 48.1719ZM20.7199 69.4034C12.2378 69.4034 2.79805 66.6247 2.79805 62.6328V58.5822C5.88599 61.537 12.6678 63.533 20.7199 63.533C28.772 63.533 35.5733 61.537 38.6417 58.5822V62.6328C38.6417 66.6247 29.202 69.4034 20.7199 69.4034ZM40.4397 62.6328V56.958C42.2573 56.8406 43.9967 56.6058 45.5993 56.2927V62.0849C43.9577 62.4176 42.1987 62.672 40.4397 62.8089C40.4397 62.7502 40.4397 62.6915 40.4397 62.6328ZM83.2215 63.8265C83.2215 67.8184 73.7818 70.5971 65.2997 70.5971C54.57 70.5971 47.3778 67.0944 47.3778 63.8265V59.7759C50.4658 62.7111 57.2476 64.707 65.2997 64.707C73.3518 64.707 80.1336 62.7111 83.2215 59.7759V63.8265Z"/>
</mask>
<path d="M65.2801 39.9337C62.3094 39.9337 59.4951 40.2077 56.9935 40.6969V10.1314C56.9935 5.33717 48.3355 1.58008 37.2932 1.58008C26.2508 1.58008 17.5733 5.33717 17.5733 10.1314V46.4891C8.05537 47.1152 1 50.618 1 54.9425V62.6132C1 67.4074 9.65798 71.1841 20.7199 71.1841C30.1792 71.1841 37.8795 68.425 39.9121 64.6288C41.9251 64.5114 43.8404 64.2765 45.5993 63.9439C45.7557 68.6794 54.3355 72.3778 65.2997 72.3778C76.2638 72.3778 85 68.6207 85 63.8069V48.485C85 43.6908 76.342 39.9142 65.2997 39.9142L65.2801 39.9337ZM40.4202 54.9621C40.4202 52.8096 38.6612 50.8528 35.7296 49.3656C35.8078 49.3656 35.886 49.3656 35.9642 49.3656C36.4137 49.3656 36.8436 49.3852 37.2932 49.3852C40.2638 49.3852 43.0782 49.1112 45.5798 48.622V54.4337C43.9381 54.7664 42.1791 55.0208 40.4202 55.1578V54.9621ZM47.3583 52.1051C50.4463 55.0599 57.228 57.0559 65.2801 57.0559C73.3322 57.0559 80.114 55.0599 83.202 52.1051V56.1557C83.202 60.1477 73.7622 62.9263 65.2801 62.9263C56.798 62.9263 47.3583 60.1477 47.3583 56.1557V52.1051ZM65.2801 41.7144C76.0098 41.7144 83.202 45.2171 83.202 48.485C83.202 52.4769 73.7622 55.2556 65.2801 55.2556C56.798 55.2556 47.3583 52.4769 47.3583 48.485C47.3583 45.2171 54.5505 41.7144 65.2801 41.7144ZM37.2932 3.36078C45.7752 3.36078 55.215 6.13946 55.215 10.1314C55.215 13.3993 48.0033 16.902 37.2932 16.902C26.5831 16.902 19.3713 13.3993 19.3713 10.1314C19.3713 6.13946 28.8306 3.36078 37.2932 3.36078ZM19.3713 13.7515C21.228 15.5322 24.4137 16.9411 28.4202 17.8021C31.0782 18.3696 34.0879 18.7022 37.2932 18.7022C40.4984 18.7022 43.5081 18.3696 46.1661 17.8021C50.1726 16.9411 53.3583 15.5126 55.215 13.7515V17.8021C55.215 21.07 48.0033 24.5727 37.2932 24.5727C26.5831 24.5727 19.3713 21.07 19.3713 17.8021V13.7515ZM19.3713 21.4222C19.7622 21.794 20.1922 22.1462 20.6808 22.4789C20.6808 22.4789 20.6808 22.4789 20.7003 22.4789C21.1889 22.8116 21.7166 23.1246 22.3029 23.4182C22.3029 23.4182 22.342 23.4182 22.3616 23.4377C22.9479 23.7313 23.5537 24.0052 24.2182 24.2596C24.2573 24.2596 24.2769 24.2792 24.316 24.2987C24.9805 24.5531 25.6645 24.7684 26.4072 24.9836C26.4463 24.9836 26.5049 25.0032 26.544 25.0228C26.8762 25.1206 27.2085 25.1989 27.5603 25.2772C27.5993 25.2772 27.6384 25.2967 27.6775 25.2967C28.0489 25.3946 28.4397 25.4728 28.8306 25.5511C28.8892 25.5511 28.9479 25.5707 29.0065 25.5902C29.3388 25.6489 29.6906 25.7272 30.0228 25.7664C30.101 25.7664 30.1792 25.7859 30.2573 25.8055C30.6482 25.8642 31.0586 25.9229 31.4691 25.9816C31.5277 25.9816 31.5863 25.9816 31.645 26.0012C31.9967 26.0403 32.3485 26.0794 32.7199 26.1186C32.8176 26.1186 32.9153 26.1381 33.013 26.1381C33.4235 26.1773 33.8534 26.2164 34.2834 26.236C34.3225 26.236 34.3811 26.236 34.4202 26.236C34.8111 26.2556 35.202 26.2751 35.5928 26.2947C35.7101 26.2947 35.8274 26.2947 35.9446 26.2947C36.3941 26.2947 36.8241 26.3143 37.2736 26.3143C37.7231 26.3143 38.1726 26.3143 38.6026 26.2947C38.7199 26.2947 38.8371 26.2947 38.9544 26.2947C39.3453 26.2947 39.7362 26.2556 40.127 26.236C40.1661 26.236 40.2248 26.236 40.2638 26.236C40.6938 26.2164 41.1238 26.1773 41.5342 26.1381C41.6319 26.1381 41.7296 26.1382 41.8274 26.1186C42.1987 26.0794 42.5505 26.0403 42.9023 26.0012C42.9609 26.0012 43.0195 26.0012 43.0977 25.9816C43.5081 25.9229 43.9186 25.8642 44.3094 25.8055C44.3876 25.8055 44.4658 25.7859 44.5244 25.7664C44.8762 25.7077 45.228 25.6489 45.5603 25.5707C45.6189 25.5707 45.6775 25.5511 45.7362 25.5315C46.127 25.4533 46.5179 25.375 46.8893 25.2772C46.9283 25.2772 46.9674 25.2771 47.0065 25.2576C47.3583 25.1793 47.6906 25.0815 48.0228 24.9836C48.0619 24.9836 48.1205 24.9641 48.1596 24.9445C48.9023 24.7292 49.5863 24.514 50.2508 24.2596C50.2899 24.2596 50.3094 24.24 50.3485 24.2205C51.013 23.9661 51.6384 23.6921 52.2248 23.3986C52.2248 23.3986 52.2638 23.3986 52.2834 23.379C52.8697 23.0855 53.3974 22.7724 53.886 22.4398C53.886 22.4398 53.886 22.4398 53.9055 22.4398C54.3941 22.1071 54.8436 21.7549 55.215 21.3831V25.4337C55.215 29.4256 45.7752 32.2043 37.2932 32.2043C26.5635 32.2043 19.3713 28.7016 19.3713 25.4337V21.3831V21.4222ZM19.3713 29.0929C19.7622 29.4647 20.1922 29.817 20.6808 30.1496C21.1694 30.4823 21.7166 30.7954 22.3029 31.0889C22.3029 31.0889 22.342 31.0889 22.342 31.1085C22.9283 31.402 23.5537 31.6759 24.2182 31.9303C24.2378 31.9303 24.2769 31.9499 24.316 31.9695C24.9805 32.2239 25.684 32.4391 26.4072 32.6544C26.4463 32.6544 26.5049 32.6739 26.544 32.6935C26.8762 32.7913 27.2085 32.8696 27.5603 32.9479C27.5993 32.9479 27.6384 32.9674 27.6775 32.9674C28.0489 33.0653 28.4397 33.1436 28.8306 33.2218C28.8892 33.2218 28.9479 33.2414 29.0065 33.261C29.3388 33.3197 29.6906 33.3979 30.0423 33.4567C30.1205 33.4567 30.1987 33.4762 30.2573 33.4958C30.6482 33.5545 31.0586 33.6132 31.4691 33.6719C31.5277 33.6719 31.5863 33.6719 31.645 33.6915C31.9967 33.7306 32.3485 33.7697 32.7199 33.8089C32.8176 33.8089 32.9153 33.8284 33.013 33.8284C33.4235 33.8676 33.8534 33.9067 34.2834 33.9263C34.3225 33.9263 34.3811 33.9263 34.4397 33.9263C34.8306 33.9459 35.2215 33.9654 35.6124 33.985C35.7296 33.985 35.8469 33.985 35.9642 33.985C36.4137 33.985 36.8436 34.0046 37.2932 34.0046C37.7427 34.0046 38.1922 34.0046 38.6222 33.985C38.7394 33.985 38.8567 33.985 38.9739 33.985C39.3648 33.985 39.7557 33.9459 40.1466 33.9263C40.1857 33.9263 40.2443 33.9263 40.2834 33.9263C40.7134 33.9067 41.1433 33.8676 41.5537 33.8284C41.6515 33.8284 41.7492 33.8284 41.8469 33.8089C42.1987 33.7697 42.57 33.7306 42.9218 33.6915C42.9805 33.6915 43.0391 33.6915 43.1173 33.6719C43.5277 33.6132 43.9186 33.5545 44.329 33.4958C44.4072 33.4958 44.4853 33.4762 44.5635 33.4567C44.9153 33.3979 45.2476 33.3392 45.5798 33.2805C45.6384 33.2805 45.6971 33.261 45.7557 33.2414C46.1466 33.1631 46.5179 33.0849 46.8893 32.987C46.9283 32.987 46.9674 32.9674 47.0261 32.9479C47.3583 32.8696 47.6906 32.7718 48.0228 32.6935C48.0814 32.6935 48.1205 32.6739 48.1792 32.6544C48.9023 32.4391 49.6059 32.2239 50.2508 31.9695C50.2899 31.9695 50.329 31.9499 50.3681 31.9303C51.0326 31.6759 51.6384 31.402 52.2248 31.128C52.2443 31.128 52.2638 31.1085 52.2834 31.0889C52.8697 30.7954 53.3974 30.4823 53.886 30.1496C53.886 30.1496 53.886 30.1496 53.9055 30.1301C54.3941 29.7974 54.8241 29.4452 55.215 29.0929V33.1436C55.215 34.8851 53.0261 36.7245 49.3518 38.0552C46.3811 39.0727 42.6287 39.738 38.9349 39.8946C38.3876 39.9141 37.8404 39.9337 37.2932 39.9337C36.4919 39.9337 35.6906 39.9141 34.8893 39.8554C33.9121 39.7967 32.9544 39.6989 31.9967 39.5815C25.3127 38.7205 19.3713 36.3136 19.3713 33.1436V29.0929ZM19.3713 36.7637C19.7427 37.1355 20.1922 37.4877 20.6808 37.8204C20.6808 37.8204 20.7003 37.8204 20.7003 37.8399C21.1889 38.1726 21.7166 38.4857 22.3029 38.7792C22.3225 38.7792 22.342 38.7988 22.3616 38.8183C22.9283 39.1119 23.5537 39.3858 24.2182 39.6206C24.2573 39.6206 24.2964 39.6402 24.3355 39.6598C24.6677 39.7772 25 39.8946 25.3322 40.012C25.684 40.1294 26.0358 40.2272 26.4072 40.3446C26.4658 40.3446 26.5049 40.3642 26.5635 40.3838C26.8958 40.4816 27.228 40.5599 27.5603 40.6382C27.5993 40.6382 27.6384 40.6577 27.6971 40.6773C28.0684 40.7752 28.4593 40.8534 28.8306 40.9317C28.8892 40.9317 28.9479 40.9513 29.0261 40.9708C29.3583 41.0295 29.6906 41.0882 30.0423 41.1469C30.1205 41.1469 30.1987 41.1665 30.2769 41.1861C30.6678 41.2448 31.0782 41.3035 31.4886 41.3622C31.5472 41.3622 31.6254 41.3622 31.684 41.3818C32.0358 41.4209 32.3876 41.46 32.759 41.4992C32.8567 41.4992 32.9544 41.5187 33.0521 41.5187C33.4625 41.5579 33.8925 41.597 34.3225 41.6166C34.3616 41.6166 34.4202 41.6166 34.4593 41.6166C34.8502 41.6362 35.241 41.6557 35.6319 41.6753C35.7492 41.6753 35.8664 41.6753 35.9837 41.6753C36.4332 41.6753 36.8632 41.6949 37.3127 41.6949C37.7622 41.6949 38.2117 41.6949 38.6417 41.6753C38.759 41.6753 38.8762 41.6753 38.9935 41.6753C39.3844 41.6753 39.7752 41.6362 40.1661 41.6166C40.2052 41.6166 40.2638 41.6166 40.3029 41.6166C40.7329 41.597 41.1629 41.5579 41.5733 41.5187C41.671 41.5187 41.7687 41.5187 41.8665 41.4992C42.2378 41.46 42.5896 41.4209 42.9414 41.3818C43 41.3818 43.0586 41.3818 43.1173 41.3622C43.5277 41.3035 43.9381 41.2448 44.329 41.1861C44.4072 41.1861 44.4853 41.1665 44.5635 41.1469C44.9153 41.0882 45.2476 41.0295 45.5798 40.9708C45.6384 40.9708 45.6971 40.9513 45.7557 40.9317C46.1466 40.8534 46.5375 40.7752 46.9088 40.6773C46.9479 40.6773 46.987 40.6577 47.0261 40.6577C47.3778 40.5795 47.7101 40.4816 48.0423 40.4034C48.101 40.4034 48.1401 40.3838 48.1987 40.3642C48.9218 40.149 49.6254 39.9337 50.2704 39.6793C50.3094 39.6793 50.3485 39.6598 50.3681 39.6402C51.0326 39.3858 51.658 39.1119 52.2248 38.8379C52.2443 38.8379 52.2638 38.8183 52.2834 38.7988C52.8697 38.5052 53.3974 38.1922 53.886 37.8595C53.886 37.8595 53.886 37.8595 53.9055 37.8595C54.3941 37.5268 54.8241 37.1746 55.215 36.8224V40.873C55.215 40.873 55.1954 41.0687 55.1759 41.1665C50.5049 42.3602 47.1238 44.3561 45.9902 46.763C43.4691 47.3305 40.5375 47.6632 37.2932 47.6632C28.8111 47.6632 19.3713 44.8845 19.3713 40.8926V36.8419V36.7637ZM19.3713 44.4344C19.7622 44.8062 20.1922 45.1584 20.7003 45.4911C21.1889 45.8237 21.7166 46.1173 22.2834 46.4108C21.7752 46.4108 21.2476 46.3912 20.7199 46.3912C20.2704 46.3912 19.8208 46.3912 19.3713 46.4108V44.4344ZM20.7199 48.1719C31.2932 48.1719 38.6417 51.7529 38.6417 54.9425C38.6417 58.1321 31.43 61.7327 20.7199 61.7327C10.0098 61.7327 2.79805 58.23 2.79805 54.9425C2.79805 50.9506 12.2378 48.1719 20.7199 48.1719ZM20.7199 69.4034C12.2378 69.4034 2.79805 66.6247 2.79805 62.6328V58.5822C5.88599 61.537 12.6678 63.533 20.7199 63.533C28.772 63.533 35.5733 61.537 38.6417 58.5822V62.6328C38.6417 66.6247 29.202 69.4034 20.7199 69.4034ZM40.4397 62.6328V56.958C42.2573 56.8406 43.9967 56.6058 45.5993 56.2927V62.0849C43.9577 62.4176 42.1987 62.672 40.4397 62.8089C40.4397 62.7502 40.4397 62.6915 40.4397 62.6328ZM83.2215 63.8265C83.2215 67.8184 73.7818 70.5971 65.2997 70.5971C54.57 70.5971 47.3778 67.0944 47.3778 63.8265V59.7759C50.4658 62.7111 57.2476 64.707 65.2997 64.707C73.3518 64.707 80.1336 62.7111 83.2215 59.7759V63.8265Z" fill="white"/>
<path d="M65.2801 39.9337C62.3094 39.9337 59.4951 40.2077 56.9935 40.6969V10.1314C56.9935 5.33717 48.3355 1.58008 37.2932 1.58008C26.2508 1.58008 17.5733 5.33717 17.5733 10.1314V46.4891C8.05537 47.1152 1 50.618 1 54.9425V62.6132C1 67.4074 9.65798 71.1841 20.7199 71.1841C30.1792 71.1841 37.8795 68.425 39.9121 64.6288C41.9251 64.5114 43.8404 64.2765 45.5993 63.9439C45.7557 68.6794 54.3355 72.3778 65.2997 72.3778C76.2638 72.3778 85 68.6207 85 63.8069V48.485C85 43.6908 76.342 39.9142 65.2997 39.9142L65.2801 39.9337ZM40.4202 54.9621C40.4202 52.8096 38.6612 50.8528 35.7296 49.3656C35.8078 49.3656 35.886 49.3656 35.9642 49.3656C36.4137 49.3656 36.8436 49.3852 37.2932 49.3852C40.2638 49.3852 43.0782 49.1112 45.5798 48.622V54.4337C43.9381 54.7664 42.1791 55.0208 40.4202 55.1578V54.9621ZM47.3583 52.1051C50.4463 55.0599 57.228 57.0559 65.2801 57.0559C73.3322 57.0559 80.114 55.0599 83.202 52.1051V56.1557C83.202 60.1477 73.7622 62.9263 65.2801 62.9263C56.798 62.9263 47.3583 60.1477 47.3583 56.1557V52.1051ZM65.2801 41.7144C76.0098 41.7144 83.202 45.2171 83.202 48.485C83.202 52.4769 73.7622 55.2556 65.2801 55.2556C56.798 55.2556 47.3583 52.4769 47.3583 48.485C47.3583 45.2171 54.5505 41.7144 65.2801 41.7144ZM37.2932 3.36078C45.7752 3.36078 55.215 6.13946 55.215 10.1314C55.215 13.3993 48.0033 16.902 37.2932 16.902C26.5831 16.902 19.3713 13.3993 19.3713 10.1314C19.3713 6.13946 28.8306 3.36078 37.2932 3.36078ZM19.3713 13.7515C21.228 15.5322 24.4137 16.9411 28.4202 17.8021C31.0782 18.3696 34.0879 18.7022 37.2932 18.7022C40.4984 18.7022 43.5081 18.3696 46.1661 17.8021C50.1726 16.9411 53.3583 15.5126 55.215 13.7515V17.8021C55.215 21.07 48.0033 24.5727 37.2932 24.5727C26.5831 24.5727 19.3713 21.07 19.3713 17.8021V13.7515ZM19.3713 21.4222C19.7622 21.794 20.1922 22.1462 20.6808 22.4789C20.6808 22.4789 20.6808 22.4789 20.7003 22.4789C21.1889 22.8116 21.7166 23.1246 22.3029 23.4182C22.3029 23.4182 22.342 23.4182 22.3616 23.4377C22.9479 23.7313 23.5537 24.0052 24.2182 24.2596C24.2573 24.2596 24.2769 24.2792 24.316 24.2987C24.9805 24.5531 25.6645 24.7684 26.4072 24.9836C26.4463 24.9836 26.5049 25.0032 26.544 25.0228C26.8762 25.1206 27.2085 25.1989 27.5603 25.2772C27.5993 25.2772 27.6384 25.2967 27.6775 25.2967C28.0489 25.3946 28.4397 25.4728 28.8306 25.5511C28.8892 25.5511 28.9479 25.5707 29.0065 25.5902C29.3388 25.6489 29.6906 25.7272 30.0228 25.7664C30.101 25.7664 30.1792 25.7859 30.2573 25.8055C30.6482 25.8642 31.0586 25.9229 31.4691 25.9816C31.5277 25.9816 31.5863 25.9816 31.645 26.0012C31.9967 26.0403 32.3485 26.0794 32.7199 26.1186C32.8176 26.1186 32.9153 26.1381 33.013 26.1381C33.4235 26.1773 33.8534 26.2164 34.2834 26.236C34.3225 26.236 34.3811 26.236 34.4202 26.236C34.8111 26.2556 35.202 26.2751 35.5928 26.2947C35.7101 26.2947 35.8274 26.2947 35.9446 26.2947C36.3941 26.2947 36.8241 26.3143 37.2736 26.3143C37.7231 26.3143 38.1726 26.3143 38.6026 26.2947C38.7199 26.2947 38.8371 26.2947 38.9544 26.2947C39.3453 26.2947 39.7362 26.2556 40.127 26.236C40.1661 26.236 40.2248 26.236 40.2638 26.236C40.6938 26.2164 41.1238 26.1773 41.5342 26.1381C41.6319 26.1381 41.7296 26.1382 41.8274 26.1186C42.1987 26.0794 42.5505 26.0403 42.9023 26.0012C42.9609 26.0012 43.0195 26.0012 43.0977 25.9816C43.5081 25.9229 43.9186 25.8642 44.3094 25.8055C44.3876 25.8055 44.4658 25.7859 44.5244 25.7664C44.8762 25.7077 45.228 25.6489 45.5603 25.5707C45.6189 25.5707 45.6775 25.5511 45.7362 25.5315C46.127 25.4533 46.5179 25.375 46.8893 25.2772C46.9283 25.2772 46.9674 25.2771 47.0065 25.2576C47.3583 25.1793 47.6906 25.0815 48.0228 24.9836C48.0619 24.9836 48.1205 24.9641 48.1596 24.9445C48.9023 24.7292 49.5863 24.514 50.2508 24.2596C50.2899 24.2596 50.3094 24.24 50.3485 24.2205C51.013 23.9661 51.6384 23.6921 52.2248 23.3986C52.2248 23.3986 52.2638 23.3986 52.2834 23.379C52.8697 23.0855 53.3974 22.7724 53.886 22.4398C53.886 22.4398 53.886 22.4398 53.9055 22.4398C54.3941 22.1071 54.8436 21.7549 55.215 21.3831V25.4337C55.215 29.4256 45.7752 32.2043 37.2932 32.2043C26.5635 32.2043 19.3713 28.7016 19.3713 25.4337V21.3831V21.4222ZM19.3713 29.0929C19.7622 29.4647 20.1922 29.817 20.6808 30.1496C21.1694 30.4823 21.7166 30.7954 22.3029 31.0889C22.3029 31.0889 22.342 31.0889 22.342 31.1085C22.9283 31.402 23.5537 31.6759 24.2182 31.9303C24.2378 31.9303 24.2769 31.9499 24.316 31.9695C24.9805 32.2239 25.684 32.4391 26.4072 32.6544C26.4463 32.6544 26.5049 32.6739 26.544 32.6935C26.8762 32.7913 27.2085 32.8696 27.5603 32.9479C27.5993 32.9479 27.6384 32.9674 27.6775 32.9674C28.0489 33.0653 28.4397 33.1436 28.8306 33.2218C28.8892 33.2218 28.9479 33.2414 29.0065 33.261C29.3388 33.3197 29.6906 33.3979 30.0423 33.4567C30.1205 33.4567 30.1987 33.4762 30.2573 33.4958C30.6482 33.5545 31.0586 33.6132 31.4691 33.6719C31.5277 33.6719 31.5863 33.6719 31.645 33.6915C31.9967 33.7306 32.3485 33.7697 32.7199 33.8089C32.8176 33.8089 32.9153 33.8284 33.013 33.8284C33.4235 33.8676 33.8534 33.9067 34.2834 33.9263C34.3225 33.9263 34.3811 33.9263 34.4397 33.9263C34.8306 33.9459 35.2215 33.9654 35.6124 33.985C35.7296 33.985 35.8469 33.985 35.9642 33.985C36.4137 33.985 36.8436 34.0046 37.2932 34.0046C37.7427 34.0046 38.1922 34.0046 38.6222 33.985C38.7394 33.985 38.8567 33.985 38.9739 33.985C39.3648 33.985 39.7557 33.9459 40.1466 33.9263C40.1857 33.9263 40.2443 33.9263 40.2834 33.9263C40.7134 33.9067 41.1433 33.8676 41.5537 33.8284C41.6515 33.8284 41.7492 33.8284 41.8469 33.8089C42.1987 33.7697 42.57 33.7306 42.9218 33.6915C42.9805 33.6915 43.0391 33.6915 43.1173 33.6719C43.5277 33.6132 43.9186 33.5545 44.329 33.4958C44.4072 33.4958 44.4853 33.4762 44.5635 33.4567C44.9153 33.3979 45.2476 33.3392 45.5798 33.2805C45.6384 33.2805 45.6971 33.261 45.7557 33.2414C46.1466 33.1631 46.5179 33.0849 46.8893 32.987C46.9283 32.987 46.9674 32.9674 47.0261 32.9479C47.3583 32.8696 47.6906 32.7718 48.0228 32.6935C48.0814 32.6935 48.1205 32.6739 48.1792 32.6544C48.9023 32.4391 49.6059 32.2239 50.2508 31.9695C50.2899 31.9695 50.329 31.9499 50.3681 31.9303C51.0326 31.6759 51.6384 31.402 52.2248 31.128C52.2443 31.128 52.2638 31.1085 52.2834 31.0889C52.8697 30.7954 53.3974 30.4823 53.886 30.1496C53.886 30.1496 53.886 30.1496 53.9055 30.1301C54.3941 29.7974 54.8241 29.4452 55.215 29.0929V33.1436C55.215 34.8851 53.0261 36.7245 49.3518 38.0552C46.3811 39.0727 42.6287 39.738 38.9349 39.8946C38.3876 39.9141 37.8404 39.9337 37.2932 39.9337C36.4919 39.9337 35.6906 39.9141 34.8893 39.8554C33.9121 39.7967 32.9544 39.6989 31.9967 39.5815C25.3127 38.7205 19.3713 36.3136 19.3713 33.1436V29.0929ZM19.3713 36.7637C19.7427 37.1355 20.1922 37.4877 20.6808 37.8204C20.6808 37.8204 20.7003 37.8204 20.7003 37.8399C21.1889 38.1726 21.7166 38.4857 22.3029 38.7792C22.3225 38.7792 22.342 38.7988 22.3616 38.8183C22.9283 39.1119 23.5537 39.3858 24.2182 39.6206C24.2573 39.6206 24.2964 39.6402 24.3355 39.6598C24.6677 39.7772 25 39.8946 25.3322 40.012C25.684 40.1294 26.0358 40.2272 26.4072 40.3446C26.4658 40.3446 26.5049 40.3642 26.5635 40.3838C26.8958 40.4816 27.228 40.5599 27.5603 40.6382C27.5993 40.6382 27.6384 40.6577 27.6971 40.6773C28.0684 40.7752 28.4593 40.8534 28.8306 40.9317C28.8892 40.9317 28.9479 40.9513 29.0261 40.9708C29.3583 41.0295 29.6906 41.0882 30.0423 41.1469C30.1205 41.1469 30.1987 41.1665 30.2769 41.1861C30.6678 41.2448 31.0782 41.3035 31.4886 41.3622C31.5472 41.3622 31.6254 41.3622 31.684 41.3818C32.0358 41.4209 32.3876 41.46 32.759 41.4992C32.8567 41.4992 32.9544 41.5187 33.0521 41.5187C33.4625 41.5579 33.8925 41.597 34.3225 41.6166C34.3616 41.6166 34.4202 41.6166 34.4593 41.6166C34.8502 41.6362 35.241 41.6557 35.6319 41.6753C35.7492 41.6753 35.8664 41.6753 35.9837 41.6753C36.4332 41.6753 36.8632 41.6949 37.3127 41.6949C37.7622 41.6949 38.2117 41.6949 38.6417 41.6753C38.759 41.6753 38.8762 41.6753 38.9935 41.6753C39.3844 41.6753 39.7752 41.6362 40.1661 41.6166C40.2052 41.6166 40.2638 41.6166 40.3029 41.6166C40.7329 41.597 41.1629 41.5579 41.5733 41.5187C41.671 41.5187 41.7687 41.5187 41.8665 41.4992C42.2378 41.46 42.5896 41.4209 42.9414 41.3818C43 41.3818 43.0586 41.3818 43.1173 41.3622C43.5277 41.3035 43.9381 41.2448 44.329 41.1861C44.4072 41.1861 44.4853 41.1665 44.5635 41.1469C44.9153 41.0882 45.2476 41.0295 45.5798 40.9708C45.6384 40.9708 45.6971 40.9513 45.7557 40.9317C46.1466 40.8534 46.5375 40.7752 46.9088 40.6773C46.9479 40.6773 46.987 40.6577 47.0261 40.6577C47.3778 40.5795 47.7101 40.4816 48.0423 40.4034C48.101 40.4034 48.1401 40.3838 48.1987 40.3642C48.9218 40.149 49.6254 39.9337 50.2704 39.6793C50.3094 39.6793 50.3485 39.6598 50.3681 39.6402C51.0326 39.3858 51.658 39.1119 52.2248 38.8379C52.2443 38.8379 52.2638 38.8183 52.2834 38.7988C52.8697 38.5052 53.3974 38.1922 53.886 37.8595C53.886 37.8595 53.886 37.8595 53.9055 37.8595C54.3941 37.5268 54.8241 37.1746 55.215 36.8224V40.873C55.215 40.873 55.1954 41.0687 55.1759 41.1665C50.5049 42.3602 47.1238 44.3561 45.9902 46.763C43.4691 47.3305 40.5375 47.6632 37.2932 47.6632C28.8111 47.6632 19.3713 44.8845 19.3713 40.8926V36.8419V36.7637ZM19.3713 44.4344C19.7622 44.8062 20.1922 45.1584 20.7003 45.4911C21.1889 45.8237 21.7166 46.1173 22.2834 46.4108C21.7752 46.4108 21.2476 46.3912 20.7199 46.3912C20.2704 46.3912 19.8208 46.3912 19.3713 46.4108V44.4344ZM20.7199 48.1719C31.2932 48.1719 38.6417 51.7529 38.6417 54.9425C38.6417 58.1321 31.43 61.7327 20.7199 61.7327C10.0098 61.7327 2.79805 58.23 2.79805 54.9425C2.79805 50.9506 12.2378 48.1719 20.7199 48.1719ZM20.7199 69.4034C12.2378 69.4034 2.79805 66.6247 2.79805 62.6328V58.5822C5.88599 61.537 12.6678 63.533 20.7199 63.533C28.772 63.533 35.5733 61.537 38.6417 58.5822V62.6328C38.6417 66.6247 29.202 69.4034 20.7199 69.4034ZM40.4397 62.6328V56.958C42.2573 56.8406 43.9967 56.6058 45.5993 56.2927V62.0849C43.9577 62.4176 42.1987 62.672 40.4397 62.8089C40.4397 62.7502 40.4397 62.6915 40.4397 62.6328ZM83.2215 63.8265C83.2215 67.8184 73.7818 70.5971 65.2997 70.5971C54.57 70.5971 47.3778 67.0944 47.3778 63.8265V59.7759C50.4658 62.7111 57.2476 64.707 65.2997 64.707C73.3518 64.707 80.1336 62.7111 83.2215 59.7759V63.8265Z" stroke="white" stroke-width="2" mask="url(#path-1-outside-1_163_30197)"/>
</svg>
